<svg xmlns="http://www.w3.org/2000/svg" width="512" height="512" viewBox="0 0 512 512">
  <rect width="512" height="512" rx="112" fill="#ffffff"/>
  <path d="M112 163c0-29 24-53 53-53h117c10 0 18 8 18 18v8c0 13 11 24 24 24s24-11 24-24v-8c0-10 8-18 18-18h48c29 0 53 24 53 53v58c-27 0-48 22-48 49s21 49 48 49v58c0 29-24 53-53 53h-48c-10 0-18-8-18-18v-8c0-13-11-24-24-24s-24 11-24 24v8c0 10-8 18-18 18H165c-29 0-53-24-53-53v-58c27 0 48-22 48-49s-21-49-48-49v-58Z" fill="#0ea5a5"/>
  <rect x="309" y="192" width="27" height="59" rx="14" fill="#ffffff"/>
  <rect x="309" y="280" width="27" height="59" rx="14" fill="#ffffff"/>
</svg>
